<svg width="68" height="71" viewBox="0 0 68 71" fill="none" xmlns="http://www.w3.org/2000/svg">
<g filter="url(#filter0_d_33_712)">
<circle cx="34" cy="30" r="30" fill="white"/>
</g>
<circle cx="34" cy="30" r="17" fill="#434EC4"/>
<path d="M27.8072 28.353C26.3914 28.8953 26.3076 30.8665 27.6721 31.5271L29.7264 32.5129C29.9491 32.6197 30.2152 32.5726 30.3876 32.3957L33.8507 28.8429C34.0731 28.6147 34.4383 28.61 34.6665 28.8324C34.8947 29.0548 34.8994 29.4201 34.677 29.6483L31.2139 33.2011C31.0415 33.378 31.0011 33.6452 31.1137 33.8651L32.1517 35.8935C32.847 37.2407 34.8154 37.1064 35.3213 35.6773L38.2475 27.41C38.7402 26.0181 37.3758 24.6881 35.9969 25.2162L27.8072 28.353Z" fill="white"/>
<defs>
<filter id="filter0_d_33_712" x="0.538461" y="0" width="66.9231" height="70.3846" filterUnits="userSpaceOnUse" color-interpolation-filters="sRGB">
<feFlood flood-opacity="0" result="BackgroundImageFix"/>
<feColorMatrix in="SourceAlpha" type="matrix" values="0 0 0 0 0 0 0 0 0 0 0 0 0 0 0 0 0 0 127 0" result="hardAlpha"/>
<feOffset dy="6.92308"/>
<feGaussianBlur stdDeviation="1.73077"/>
<feComposite in2="hardAlpha" operator="out"/>
<feColorMatrix type="matrix" values="0 0 0 0 0.608398 0 0 0 0 0.608398 0 0 0 0 0.608398 0 0 0 0.06 0"/>
<feBlend mode="normal" in2="BackgroundImageFix" result="effect1_dropShadow_33_712"/>
<feBlend mode="normal" in="SourceGraphic" in2="effect1_dropShadow_33_712" result="shape"/>
</filter>
</defs>
</svg>
