<svg width="18" height="18" viewBox="0 0 18 18" fill="none" xmlns="http://www.w3.org/2000/svg">
<path d="M11.1335 11.5333C11.1335 11.6394 11.0913 11.7411 11.0163 11.8162C10.9413 11.8912 10.8396 11.9333 10.7335 11.9333H4.60013C4.49405 11.9333 4.39231 11.8912 4.31729 11.8162C4.24228 11.7411 4.20013 11.6394 4.20013 11.5333V6.46665C4.20013 6.36056 4.24228 6.25882 4.31729 6.18381C4.39231 6.10879 4.49405 6.06665 4.60013 6.06665H10.7335C10.8396 6.06665 10.9413 6.10879 11.0163 6.18381C11.0913 6.25882 11.1335 6.36056 11.1335 6.46665V11.5333ZM14.3335 6.59998V11.4L11.1335 10.0667V7.93332L14.3335 6.59998Z" stroke="#686977" stroke-miterlimit="10" stroke-linecap="round" stroke-linejoin="round"/>
<path d="M14.3333 1H3.66667C2.19391 1 1 2.19391 1 3.66667V14.3333C1 15.8061 2.19391 17 3.66667 17H14.3333C15.8061 17 17 15.8061 17 14.3333V3.66667C17 2.19391 15.8061 1 14.3333 1Z" stroke="#686977" stroke-miterlimit="10" stroke-linecap="round" stroke-linejoin="round"/>
</svg>
