<svg width="145" height="145" viewBox="0 0 145 145" fill="none" xmlns="http://www.w3.org/2000/svg">
<path d="M54.259 54.2591L102.116 102.116M54.259 54.2591C53.2581 53.2593 51.9985 52.558 50.6211 52.2338C49.2437 51.9097 47.8031 51.9754 46.4605 52.4237L42.4877 53.7456C32.1911 57.18 23.1845 63.6717 16.6693 72.3547L13.0942 77.1152C11.3608 79.4284 9.46522 81.6157 7.42183 83.6604L2.40756 88.6746L56.2887 142.556L58.3375 140.507C62.3433 136.5 65.7716 131.954 68.5235 127.002L70.6538 123.169C75.2887 114.831 82.8796 108.532 91.9282 105.515L102.116 102.116M54.259 54.2591C53.2592 53.2582 52.5579 51.9985 52.2338 50.6212C51.9096 49.2438 51.9754 47.8031 52.4237 46.4605L53.7455 42.4877C57.1799 32.1912 63.6716 23.1845 72.3546 16.6693L77.1151 13.0942C79.4279 11.3633 81.6115 9.47073 83.6495 7.43267L88.6746 2.40762L142.556 56.2888L140.507 58.3376C136.5 62.3434 131.954 65.7716 127.002 68.5236L123.169 70.6539C114.831 75.2887 108.532 82.8797 105.515 91.9283L102.116 102.116" stroke="#E1D200" stroke-width="3" stroke-linecap="round" stroke-linejoin="round"/>
</svg>
