<svg width="144" height="145" viewBox="0 0 144 145" fill="none" xmlns="http://www.w3.org/2000/svg">
<path d="M89.9904 54.259L42.1332 102.116M89.9904 54.259C90.9902 53.2581 91.6915 51.9985 92.0157 50.6211C92.3398 49.2437 92.2741 47.8031 91.8258 46.4605L90.5039 42.4877C87.0695 32.1911 80.5778 23.1845 71.8948 16.6693L67.1344 13.0942C64.8211 11.3608 62.6338 9.46522 60.5891 7.42183L55.5749 2.40756L1.69372 56.2887L3.74257 58.3375C7.74976 62.3433 12.2952 65.7716 17.2477 68.5235L21.0806 70.6538C29.418 75.2887 35.717 82.8796 38.7342 91.9282L42.1332 102.116M89.9904 54.259C90.9913 53.2592 92.251 52.5579 93.6283 52.2338C95.0057 51.9096 96.4464 51.9754 97.789 52.4237L101.762 53.7455C112.058 57.1799 121.065 63.6716 127.58 72.3546L131.155 77.1151C132.886 79.4279 134.779 81.6115 136.817 83.6495L141.842 88.6746L87.9608 142.556L85.9119 140.507C81.9062 136.5 78.4779 131.954 75.7259 127.002L73.5956 123.169C68.9608 114.831 61.3698 108.532 52.3212 105.515L42.1332 102.116" stroke="#E1D200" stroke-width="3" stroke-linecap="round" stroke-linejoin="round"/>
</svg>
