<svg width="126" height="86" viewBox="0 0 126 86" fill="none" xmlns="http://www.w3.org/2000/svg">
<path d="M63 16.3197V84M63 16.3197C62.9992 14.9049 62.6044 13.5183 61.8597 12.3152C61.1149 11.112 60.0497 10.1398 58.7834 9.50743L55.0395 7.63292C45.3302 2.78066 34.3713 1.00234 23.6245 2.53518L17.7304 3.37337C14.8689 3.78341 11.982 3.98967 9.09125 3.99059H2V80.19H4.8975C10.5635 80.189 16.2018 79.3991 21.6496 77.8431L25.8663 76.6391C35.0391 74.021 44.8608 74.9345 53.3925 79.1994L63 84M63 16.3197C63.0008 14.9049 63.3956 13.5183 64.1403 12.3152C64.8851 11.112 65.9503 10.1398 67.2166 9.50743L70.9605 7.63292C80.6698 2.78066 91.6287 1.00234 102.375 2.53518L108.27 3.37337C111.129 3.78485 114.011 3.99059 116.894 3.99059H124V80.19H121.103C115.436 80.189 109.798 79.3991 104.35 77.8431L100.134 76.6391C90.9609 74.021 81.1392 74.9345 72.6075 79.1994L63 84" stroke="#FFE8CB" stroke-width="3" stroke-linecap="round" stroke-linejoin="round"/>
</svg>
