<svg width="127" height="34" viewBox="0 0 127 34" fill="none" xmlns="http://www.w3.org/2000/svg">
<path d="M35.784 27H38.328V24.048H36.864C35.76 24.048 35.472 23.64 35.472 22.56V17.496H38.328V14.52H35.472V11.112H32.112V13.296C32.112 14.136 31.896 14.52 31.128 14.52H30.192V17.496H32.112V23.304C32.112 25.56 33.312 27 35.784 27ZM48.7166 14.52V21.36C48.7166 23.208 47.8526 24.312 46.1966 24.336C44.6126 24.384 43.6046 23.448 43.6046 21.504V14.52H40.4126V21.936C40.4126 25.128 42.2606 27.24 45.4526 27.24C46.9406 27.24 48.0206 26.568 48.6686 25.632L48.8366 27H51.9086V14.52H48.7166ZM59.0809 27H61.6249V24.048H60.1609C59.0569 24.048 58.7689 23.64 58.7689 22.56V17.496H61.6249V14.52H58.7689V11.112H55.4089V13.296C55.4089 14.136 55.1929 14.52 54.4249 14.52H53.4889V17.496H55.4089V23.304C55.4089 25.56 56.6089 27 59.0809 27ZM75.69 20.568C75.69 16.752 73.218 14.28 69.498 14.28C65.778 14.28 63.282 16.872 63.282 20.76C63.282 24.672 65.778 27.264 69.522 27.264C72.666 27.264 75.042 25.512 75.594 22.92H72.21C71.826 24 70.842 24.552 69.618 24.552C68.01 24.552 66.714 23.52 66.666 21.672H75.69V20.568ZM69.498 16.896C70.962 16.896 72.186 17.736 72.33 19.464H66.69C66.834 17.736 68.058 16.896 69.498 16.896ZM81.4395 8.976H78.0795V27H81.4395V8.976ZM95.8116 24.552C95.4036 24.552 95.0916 24.456 95.0916 23.832V19.176C95.0916 15.504 92.2836 14.28 89.5716 14.28C86.3076 14.28 84.0036 15.984 84.0036 18.792H87.0516C87.0996 17.688 88.0356 16.944 89.4276 16.944C90.8196 16.944 91.7076 17.712 91.7076 19.104V19.656H88.3716C85.1796 19.656 83.6916 21.168 83.6916 23.4C83.6916 25.8 85.4676 27.24 88.2276 27.24C90.0756 27.24 91.5156 26.592 92.2116 25.536C92.4756 26.616 93.3876 27 94.4916 27H96.3156V24.552H95.8116ZM91.7076 22.296C91.7076 23.784 90.7476 24.6 89.0916 24.6C87.9876 24.6 87.1476 24.216 87.1476 23.184C87.1476 22.512 87.5316 21.84 88.9716 21.84H91.7076V22.296ZM107.265 14.52L107.001 15.984C106.281 14.952 105.057 14.28 103.305 14.28C99.9448 14.28 97.6168 16.656 97.6168 20.496C97.6168 24.288 99.9208 26.712 103.257 26.712C104.985 26.712 106.329 26.064 107.001 25.032V26.52C107.001 28.176 105.873 29.304 103.953 29.304C102.585 29.304 101.505 28.752 101.169 27.528H97.9288C98.2648 30.24 100.641 32.04 103.929 32.04C107.769 32.04 110.289 29.76 110.289 25.992V14.52H107.265ZM104.025 23.784C102.249 23.784 101.073 22.44 101.073 20.52C101.073 18.624 102.249 17.256 104.025 17.256C105.825 17.256 107.001 18.624 107.001 20.544C107.001 22.44 105.825 23.784 104.025 23.784ZM125.12 20.568C125.12 16.752 122.648 14.28 118.928 14.28C115.208 14.28 112.712 16.872 112.712 20.76C112.712 24.672 115.208 27.264 118.952 27.264C122.096 27.264 124.472 25.512 125.024 22.92H121.64C121.256 24 120.272 24.552 119.048 24.552C117.44 24.552 116.144 23.52 116.096 21.672H125.12V20.568ZM118.928 16.896C120.392 16.896 121.616 17.736 121.76 19.464H116.12C116.264 17.736 117.488 16.896 118.928 16.896Z" fill="#0B0D21"/>
<path d="M12.75 10.4603C13.731 9.51391 15.423 9.24331 17.418 9.42738C19.269 9.59771 21.1725 10.1458 22.5 10.654V24.2845C21.123 23.8038 19.3395 23.334 17.5695 23.1719C15.9285 23.0194 14.1525 23.1183 12.75 23.8477V10.4603ZM12 9.21858C10.5225 8.05512 8.3805 7.88205 6.4305 8.06062C4.1595 8.27078 1.8675 8.98369 0.4395 9.57847C0.308474 9.63305 0.197363 9.72099 0.119432 9.83182C0.0415 9.94264 3.98571e-05 10.0717 0 10.2035L0 25.3134C3.4743e-05 25.4283 0.0315557 25.5414 0.0916756 25.6422C0.151796 25.7431 0.238593 25.8285 0.344116 25.8907C0.44964 25.9529 0.570517 25.9899 0.695675 25.9982C0.820833 26.0065 0.946271 25.986 1.0605 25.9384C2.3835 25.3889 4.515 24.7282 6.5805 24.5373C8.694 24.3422 10.4655 24.6568 11.415 25.7419C11.4853 25.8222 11.5743 25.8869 11.6756 25.9314C11.7768 25.9759 11.8877 25.999 12 25.999C12.1123 25.999 12.2232 25.9759 12.3244 25.9314C12.4257 25.8869 12.5147 25.8222 12.585 25.7419C13.5345 24.6568 15.306 24.3422 17.418 24.5373C19.485 24.7282 21.618 25.3889 22.9395 25.9384C23.0537 25.986 23.1792 26.0065 23.3043 25.9982C23.4295 25.9899 23.5504 25.9529 23.6559 25.8907C23.7614 25.8285 23.8482 25.7431 23.9083 25.6422C23.9684 25.5414 24 25.4283 24 25.3134V10.2035C24 10.0717 23.9585 9.94264 23.8806 9.83182C23.8026 9.72099 23.6915 9.63305 23.5605 9.57847C22.1325 8.98369 19.8405 8.27078 17.5695 8.06062C15.6195 7.88067 13.4775 8.05512 12 9.21858Z" fill="#0B0D21"/>
</svg>
