<svg width="30" height="18" viewBox="0 0 30 18" fill="none" xmlns="http://www.w3.org/2000/svg">
<path d="M18.6957 16.0753H10.8213V1.92383H18.6959L18.6957 16.0753Z" fill="#FF5F00"/>
<path d="M11.3204 9C11.3204 6.12938 12.6645 3.57223 14.7575 1.92428C13.1732 0.675038 11.2137 -0.00297132 9.19609 9.78876e-06C4.22606 9.78876e-06 0.197266 4.02938 0.197266 9C0.197266 13.9706 4.22606 18 9.19609 18C11.2137 18.003 13.1733 17.325 14.7577 16.0757C12.6648 14.4281 11.3204 11.8708 11.3204 9Z" fill="#EB001B"/>
<path d="M29.3189 9C29.3189 13.9706 25.2901 18 20.3201 18C18.3023 18.003 16.3425 17.325 14.7578 16.0757C16.8514 14.4278 18.1955 11.8708 18.1955 9C18.1955 6.12924 16.8514 3.57223 14.7578 1.92428C16.3424 0.675075 18.3022 -0.00291907 20.32 9.44732e-06C25.29 9.44732e-06 29.3188 4.02938 29.3188 9" fill="#F79E1B"/>
</svg>
