<svg width="24" height="24" viewBox="0 0 24 24" fill="none" xmlns="http://www.w3.org/2000/svg">
<path fill-rule="evenodd" clip-rule="evenodd" d="M11.25 5.41305C9.13095 3.93584 6.18953 3.26314 3.99433 3.01144C2.89642 2.88555 2 3.81585 2 4.96364V16.3941C2 17.5419 2.89642 18.4725 3.99433 18.5984C6.18953 18.8501 9.13095 19.5228 11.25 21V5.41305ZM12.75 21C14.869 19.5228 17.8105 18.8501 20.0057 18.5984C21.1036 18.4725 22 17.5419 22 16.3941V4.96364C22 3.81585 21.1036 2.88555 20.0057 3.01144C17.8105 3.26314 14.869 3.93584 12.75 5.41305V21ZM4.25882 8.21555C4.32221 7.8002 4.70543 7.51563 5.11477 7.57996C6.41754 7.78468 7.88469 8.12687 9.27049 8.67065C9.65682 8.82224 9.8489 9.26292 9.6995 9.65493C9.55011 10.0469 9.11581 10.2419 8.72948 10.0903C7.47083 9.59638 6.11398 9.27718 4.8852 9.08408C4.47587 9.01976 4.19543 8.6309 4.25882 8.21555ZM5.11477 11.6388C4.70543 11.5745 4.32221 11.859 4.25882 12.2744C4.19543 12.6897 4.47587 13.0786 4.8852 13.1429C5.50444 13.2402 6.15812 13.3699 6.81651 13.5384C7.21814 13.6412 7.62587 13.3942 7.7272 12.9867C7.82853 12.5791 7.58509 12.1654 7.18346 12.0626C6.47445 11.8811 5.7745 11.7425 5.11477 11.6388Z" fill="#686977"/>
</svg>
