<svg width="13" height="13" viewBox="0 0 13 13" fill="none" xmlns="http://www.w3.org/2000/svg">
<path d="M6.5 0L10.6781 1.52071L12.9013 5.37129L12.1292 9.75L8.72313 12.608H4.27687L0.870835 9.75L0.0987496 5.37129L2.32188 1.52071L6.5 0Z" fill="#434EC4"/>
<path fill-rule="evenodd" clip-rule="evenodd" d="M9.39663 4.60487C9.53446 4.7447 9.53446 4.9714 9.39663 5.11123L6.36635 8.18539C5.95285 8.60487 5.28244 8.60487 4.86895 8.18539L3.60337 6.90149C3.46554 6.76166 3.46554 6.53496 3.60337 6.39513C3.74121 6.2553 3.96468 6.2553 4.10251 6.39513L5.36808 7.67903C5.50591 7.81885 5.72938 7.81885 5.86721 7.67903L8.89749 4.60487C9.03532 4.46504 9.25879 4.46504 9.39663 4.60487Z" fill="white"/>
</svg>
