<svg width="99" height="77" viewBox="0 0 99 77" fill="none" xmlns="http://www.w3.org/2000/svg">
<path d="M51.2 1H48.8C42.8353 1 38 5.83532 38 11.8V26.2C38 32.1647 42.8353 37 48.8 37H51.2C57.1647 37 62 32.1647 62 26.2V11.8C62 5.83532 57.1647 1 51.2 1Z" stroke="#0B0D21" stroke-width="2" stroke-linecap="round" stroke-linejoin="round"/>
<path d="M52.3996 11.8C52.3996 12.4365 52.1468 13.047 51.6967 13.4971C51.2466 13.9471 50.6361 14.2 49.9996 14.2C49.3631 14.2 48.7526 13.9471 48.3026 13.4971C47.8525 13.047 47.5996 12.4365 47.5996 11.8V9.4C47.5996 8.76348 47.8525 8.15303 48.3026 7.70294C48.7526 7.25286 49.3631 7 49.9996 7C50.6361 7 51.2466 7.25286 51.6967 7.70294C52.1468 8.15303 52.3996 8.76348 52.3996 9.4V11.8Z" stroke="#0B0D21" stroke-width="2" stroke-linecap="round" stroke-linejoin="round"/>
<path d="M10.3366 66.562C10.3366 64.69 9.23857 63.43 6.95257 63.016L4.86457 62.638C3.40657 62.368 2.65057 61.792 2.65057 60.586C2.65057 59.2 3.92857 58.462 5.49457 58.462C7.40257 58.462 8.51857 59.308 8.51857 60.784H10.1206C10.1206 58.426 8.21257 57.112 5.56657 57.112C2.88457 57.112 1.04857 58.516 1.04857 60.64C1.04857 62.422 2.12857 63.664 4.36057 64.06L6.44857 64.456C7.90657 64.708 8.71657 65.284 8.71657 66.562C8.71657 68.002 7.29457 68.812 5.65657 68.812C3.53257 68.812 2.39857 67.894 2.39857 66.508H0.77857C0.77857 68.704 2.61457 70.18 5.60257 70.18C8.26657 70.18 10.3366 68.83 10.3366 66.562ZM19.111 63.934H20.731C20.209 61.9 18.607 60.712 16.465 60.712C13.801 60.712 12.019 62.584 12.019 65.428C12.019 68.272 13.801 70.162 16.465 70.162C18.643 70.162 20.245 68.848 20.749 66.814H19.183C18.733 68.128 17.743 68.866 16.465 68.866C14.809 68.866 13.531 67.714 13.531 65.428C13.531 63.178 14.791 61.99 16.483 61.99C17.707 61.99 18.679 62.71 19.111 63.934ZM26.5481 60.892C25.4861 60.892 24.6221 61.468 24.2441 62.188L24.0461 60.892H22.7501V70H24.2261V64.978C24.2261 63.286 24.9281 62.26 26.4941 62.26H27.7001V60.892H26.5481ZM28.7534 65.464C28.7534 68.254 30.6074 70.18 33.3614 70.18C36.1154 70.18 37.9874 68.254 37.9874 65.464C37.9874 62.656 36.1154 60.712 33.3614 60.712C30.6074 60.712 28.7534 62.656 28.7534 65.464ZM30.2654 65.446C30.2654 63.322 31.5074 61.972 33.3614 61.972C35.2154 61.972 36.4574 63.322 36.4574 65.446C36.4574 67.534 35.2154 68.902 33.3614 68.902C31.5074 68.902 30.2654 67.534 30.2654 65.446ZM41.6632 56.752H40.1872V70H41.6632V56.752ZM45.7061 56.752H44.2301V70H45.7061V56.752ZM51.9143 70V57.292H56.1083C60.1763 57.292 62.4623 59.902 62.4623 63.646C62.4623 67.408 60.1763 70 56.1083 70H51.9143ZM53.4623 68.578H56.2163C59.1143 68.56 60.8603 66.616 60.8603 63.628C60.8603 60.622 59.1143 58.714 56.2163 58.714H53.4623V68.578ZM64.226 65.464C64.226 68.254 66.08 70.18 68.834 70.18C71.588 70.18 73.46 68.254 73.46 65.464C73.46 62.656 71.588 60.712 68.834 60.712C66.08 60.712 64.226 62.656 64.226 65.464ZM65.738 65.446C65.738 63.322 66.98 61.972 68.834 61.972C70.688 61.972 71.93 63.322 71.93 65.446C71.93 67.534 70.688 68.902 68.834 68.902C66.98 68.902 65.738 67.534 65.738 65.446ZM76.1145 60.892H74.5305L77.2125 70H78.9045L81.2625 62.656L83.6205 70H85.3125L87.9405 60.892H86.3925L84.4125 68.362L82.0545 60.892H80.5245L78.1485 68.362L76.1145 60.892ZM94.0277 60.712C92.6237 60.712 91.5617 61.288 91.0397 62.296L90.8777 60.892H89.5817V70H91.0577V65.068C91.0577 63.286 91.9757 62.062 93.6857 62.062C95.1617 62.062 96.1517 62.962 96.1517 64.852V70H97.6277V64.546C97.6277 62.224 96.2957 60.712 94.0277 60.712Z" fill="#0B0D21"/>
</svg>
