<svg width="28" height="28" viewBox="0 0 28 28" fill="none" xmlns="http://www.w3.org/2000/svg">
<path d="M15.2965 0.886187C14.8471 -0.295396 13.1518 -0.295396 12.7038 0.886187H12.7024L9.80456 8.91366C9.70363 9.17528 9.52565 9.40007 9.29416 9.55832C9.06268 9.71656 8.78861 9.80079 8.50821 9.79985H1.38673C0.0735874 9.79985 -0.503187 11.4378 0.532767 12.24L5.60054 16.7997C5.82755 16.9743 5.99345 17.2162 6.07443 17.4909C6.15542 17.7655 6.14733 18.0588 6.05132 18.3285L4.2006 26.1726C3.74982 27.4312 5.20996 28.5148 6.31171 27.7392L13.1952 23.3712C13.4309 23.2056 13.712 23.1167 14.0002 23.1167C14.2883 23.1167 14.5694 23.2056 14.8051 23.3712L21.6886 27.7392C22.7918 28.5148 24.2505 27.4326 23.7997 26.1726L21.949 18.3285C21.853 18.0588 21.8449 17.7655 21.9259 17.4909C22.0069 17.2162 22.1728 16.9743 22.3998 16.7997L27.4676 12.24C28.5021 11.4378 27.9282 9.79985 26.6122 9.79985H19.4907C19.2104 9.80059 18.9364 9.71629 18.7049 9.55807C18.4735 9.39985 18.2955 9.17516 18.1944 8.91366L15.2965 0.886187Z" fill="#FDBF1C"/>
</svg>
