<svg width="57" height="18" viewBox="0 0 57 18" fill="none" xmlns="http://www.w3.org/2000/svg">
<path d="M24.7664 17.7H20.2391L23.0686 0.310721H27.5964L24.7664 17.7ZM16.4304 0.310721L12.1143 12.2712L11.6035 9.69563L11.604 9.69656L10.0806 1.87642C10.0806 1.87642 9.89644 0.310721 7.93303 0.310721H0.797595L0.713867 0.605163C0.713867 0.605163 2.8959 1.05915 5.44958 2.59276L9.38291 17.7004H14.1L21.3029 0.310721H16.4304ZM52.0402 17.7H56.1972L52.5728 0.310257H48.9334C47.2528 0.310257 46.8435 1.60617 46.8435 1.60617L40.0913 17.7H44.8108L45.7546 15.117H51.5099L52.0402 17.7ZM47.0584 11.5488L49.4372 5.04132L50.7754 11.5488H47.0584ZM40.4453 4.49244L41.0914 0.758197C41.0914 0.758197 39.0978 0 37.0195 0C34.7728 0 29.4375 0.981936 29.4375 5.75672C29.4375 10.2492 35.6994 10.305 35.6994 12.6647C35.6994 15.0244 30.0827 14.6016 28.229 13.1136L27.5559 17.0181C27.5559 17.0181 29.5775 18 32.6661 18C35.7557 18 40.4165 16.4003 40.4165 12.0465C40.4165 7.52523 34.0983 7.10427 34.0983 5.13854C34.0988 3.17234 38.508 3.42492 40.4453 4.49244Z" fill="#2566AF"/>
<path d="M11.604 9.6959L10.0806 1.87576C10.0806 1.87576 9.89644 0.310059 7.93303 0.310059H0.797595L0.713867 0.6045C0.713867 0.6045 4.14344 1.31525 7.43299 3.97825C10.5784 6.52356 11.604 9.6959 11.604 9.6959Z" fill="#E6A540"/>
</svg>
